<svg version="1.1" id="Layer_1" xmlns="http://www.w3.org/2000/svg" xmlns:xlink="http://www.w3.org/1999/xlink" x="0px" y="0px"
	 width="100%" viewBox="0 0 600 120" enable-background="new 0 0 600 120" xml:space="preserve">
<path fill="#000000" opacity="1.000000" stroke="none" 
	d="
M1.000000,43.000000 
	C1.000000,29.004353 1.000000,15.008705 1.000000,1.009793 
	C200.933472,1.006529 400.866943,1.006529 600.900208,1.006529 
	C600.900208,40.920811 600.900208,80.841949 600.900208,120.881546 
	C401.000061,120.881546 201.000031,120.881546 1.000000,120.881546 
	C1.000000,106.261505 1.000000,91.599411 1.379110,76.483345 
	C5.448001,77.019585 9.115780,78.753738 12.831594,78.863640 
	C25.076462,79.225761 37.338711,79.000000 49.618622,79.000000 
	C49.618622,76.369659 49.618622,74.335030 49.618622,71.895241 
	C35.341587,71.895241 21.436155,71.895241 7.329634,71.895241 
	C7.329634,63.782650 7.329634,56.085327 7.329634,47.802971 
	C11.704568,47.802971 15.757965,47.802971 19.699554,47.802971 
	C19.699554,45.284412 19.699554,43.357193 19.699554,40.235874 
	C13.159076,41.202675 7.079538,42.101337 1.000000,43.000000 
M505.000000,62.498886 
	C505.000000,68.258797 505.000000,74.018715 505.000000,79.725403 
	C507.666992,79.725403 509.595612,79.725403 512.036194,79.725403 
	C512.036194,73.074753 512.036194,66.680695 512.036194,59.043636 
	C513.717346,60.369026 514.749878,60.806084 515.167786,61.576515 
	C517.176025,65.278976 518.823242,69.189964 521.005066,72.779968 
	C522.032410,74.470444 524.006836,76.726303 525.491455,76.682281 
	C527.026184,76.636765 528.886292,74.347916 529.901245,72.626167 
	C532.334595,68.498482 534.355652,64.127777 536.543091,59.855152 
	C537.074585,60.016857 537.606140,60.178562 538.137634,60.340263 
	C538.137634,66.842590 538.137634,73.344917 538.137634,79.674431 
	C540.769592,79.674431 542.689148,79.674431 544.626465,79.674431 
	C544.626465,67.310577 544.626465,55.270618 544.626465,43.533138 
	C538.544312,41.593353 535.022766,43.431973 533.156189,49.311333 
	C531.928650,53.177914 529.762268,56.767841 527.816162,60.373642 
	C527.107666,61.686275 525.819580,62.686096 524.595886,64.051903 
	C521.808289,58.568092 519.405273,53.900658 517.056458,49.206093 
	C513.468323,42.034554 513.484192,42.026623 505.000000,43.714134 
	C505.000000,49.583897 505.000000,55.541946 505.000000,62.498886 
M425.663239,62.129612 
	C425.754883,60.806026 425.467255,59.300533 426.000488,58.188747 
	C429.148712,51.624722 426.173309,44.185638 419.041840,43.292057 
	C412.234924,42.439137 405.237274,43.108173 398.422699,43.108173 
	C398.422699,55.746460 398.422699,67.772469 398.422699,79.999634 
	C405.158630,79.999634 411.473633,80.054352 417.787079,79.979271 
	C421.623932,79.933647 425.304169,79.638481 427.278961,75.368492 
	C429.379608,70.826324 429.513428,66.650551 425.663239,62.129612 
M158.762070,79.782837 
	C161.028122,79.782837 163.294174,79.782837 166.138092,79.782837 
	C166.138092,76.369987 166.138092,73.314186 166.138092,70.409599 
	C171.509460,69.446777 175.741089,69.318871 177.826813,75.193832 
	C179.776642,80.686043 184.438324,80.553055 189.782394,79.613289 
	C187.073532,75.599113 184.606430,71.943169 182.132431,68.277031 
	C188.126907,64.914803 189.454987,59.847980 188.887848,54.132271 
	C188.299271,48.200455 184.440628,44.105793 179.022110,43.336189 
	C172.246002,42.373753 165.229355,43.104816 158.169724,43.104816 
	C158.169724,55.503471 158.169724,67.285767 158.762070,79.782837 
M357.049133,47.564732 
	C355.305573,46.354015 353.653870,44.281212 351.802338,44.083939 
	C344.351532,43.290085 336.838959,43.076046 329.261780,42.642780 
	C329.261780,55.661350 329.261780,67.579964 329.261780,79.658966 
	C331.903931,79.658966 334.277924,79.658966 337.239899,79.658966 
	C337.239899,76.278061 337.239899,73.224915 337.239899,70.514091 
	C343.647095,68.776161 347.702393,70.412056 349.967621,76.367790 
	C351.868042,81.364342 355.760956,80.398445 360.065887,79.108360 
	C357.702606,75.141098 355.642303,71.682449 353.626862,68.299065 
	C360.837463,62.669449 362.211243,54.878704 357.049133,47.564732 
M442.000000,52.547813 
	C442.000000,61.618389 442.000000,70.688965 442.000000,79.723427 
	C451.721436,79.723427 460.645264,79.723427 469.634338,79.723427 
	C469.634338,77.737869 469.634338,76.033836 469.634338,73.909920 
	C463.029755,73.909920 456.768280,73.909920 450.338806,73.909920 
	C450.338806,70.775070 450.338806,68.073975 450.338806,64.786118 
	C456.385071,64.786118 462.107330,64.786118 467.689697,64.786118 
	C467.689697,62.265369 467.689697,60.341022 467.689697,57.837673 
	C461.671265,57.837673 455.939453,57.837673 450.285767,57.837673 
	C450.285767,54.985371 450.285767,52.723652 450.285767,49.885914 
	C456.949402,49.885914 463.346252,49.885914 469.744934,49.885914 
	C469.744934,47.371399 469.744934,45.441559 469.744934,43.335232 
	C460.456268,43.335232 451.420563,43.335232 442.000000,43.335232 
	C442.000000,46.298779 442.000000,48.931240 442.000000,52.547813 
M585.192261,43.007076 
	C577.264648,43.007076 569.336975,43.007076 561.386963,43.007076 
	C561.386963,55.665730 561.386963,67.694160 561.386963,79.730682 
	C570.700684,79.730682 579.625061,79.730682 588.643311,79.730682 
	C588.643311,77.752686 588.643311,76.048492 588.643311,73.922958 
	C582.046936,73.922958 575.783936,73.922958 569.332642,73.922958 
	C569.332642,70.788773 569.332642,68.086845 569.332642,64.797867 
	C575.375305,64.797867 581.100952,64.797867 586.694092,64.797867 
	C586.694092,62.276234 586.694092,60.350136 586.694092,57.843704 
	C580.681030,57.843704 574.951355,57.843704 569.283508,57.843704 
	C569.283508,54.990013 569.283508,52.728016 569.283508,49.886879 
	C575.610657,49.886879 581.674316,49.886879 589.082397,49.886879 
	C587.823914,46.966782 586.976501,45.000435 585.192261,43.007076 
M139.283493,68.161095 
	C144.405380,66.083313 144.977570,61.507526 145.575165,56.876289 
	C146.415024,50.367340 141.699966,43.575005 135.242157,43.125732 
	C128.682343,42.669361 122.066025,43.024940 115.323776,43.024940 
	C115.323776,55.598789 115.323776,67.621094 115.323776,79.594498 
	C118.032005,79.594498 120.405518,79.594498 123.183624,79.594498 
	C123.183624,76.267281 123.183624,73.344307 123.183624,70.574196 
	C128.642654,69.919411 133.669861,69.316429 139.283493,68.161095 
M245.902588,47.641418 
	C242.147156,54.417984 243.686493,59.663319 250.601593,62.807983 
	C253.550644,64.149071 256.849731,64.741302 259.746155,66.168251 
	C261.117645,66.843918 262.413696,68.563431 262.765625,70.042747 
	C262.942017,70.784271 261.103699,72.559052 259.870972,72.987656 
	C253.980972,75.035484 249.733688,71.335098 245.331726,68.376053 
	C241.809189,72.172020 242.241653,76.005096 246.710892,78.239212 
	C251.969269,80.867798 257.447845,81.828667 263.326660,80.043365 
	C267.914551,78.650078 271.749298,74.852180 271.929901,70.176552 
	C272.112335,65.453499 269.863983,62.001495 265.418915,60.169399 
	C262.255096,58.865391 258.915863,57.908241 255.926437,56.293636 
	C254.468933,55.506432 253.631836,53.570515 252.513901,52.154568 
	C254.227097,51.436829 256.025330,49.970234 257.636230,50.153202 
	C261.281067,50.567173 264.833466,51.794930 268.497345,52.710178 
	C269.637146,50.309246 273.289886,48.132332 269.418060,45.215027 
	C264.174500,41.264126 251.230225,42.397327 245.902588,47.641418 
M211.009521,52.614452 
	C212.212143,51.743736 213.379333,50.185398 214.623505,50.121315 
	C220.014938,49.843616 225.428864,50.002300 230.675674,50.002300 
	C230.675674,47.226540 230.675674,45.306900 230.675674,43.401615 
	C221.648514,43.401615 212.945740,43.401615 204.296112,43.401615 
	C204.296112,55.716560 204.296112,67.627998 204.296112,80.000000 
	C208.869278,80.000000 213.158539,80.000000 217.447784,80.000000 
	C221.882904,80.000000 226.318039,80.000000 230.743683,80.000000 
	C230.743683,77.707062 230.743683,76.103966 230.743683,73.917496 
	C224.120087,73.917496 217.727448,73.917496 211.239059,73.917496 
	C211.239059,70.735634 211.239059,68.144859 211.239059,64.968658 
	C217.187241,64.968658 222.914322,64.968658 228.598160,64.968658 
	C228.598160,62.336437 228.598160,60.300526 228.598160,57.845295 
	C222.611038,57.845295 217.015411,57.845295 211.210800,57.845295 
	C211.127914,56.133923 211.065125,54.837700 211.009521,52.614452 
M98.999168,50.880489 
	C98.569649,42.981575 95.051163,40.900204 88.501190,40.972298 
	C78.684570,41.080349 68.865868,41.000130 59.048046,41.000004 
	C55.785908,40.999966 52.523766,41.000000 49.310760,41.000000 
	C49.310760,43.680771 49.310760,45.603920 49.310760,47.999905 
	C51.401657,47.999905 53.195889,47.999851 54.990120,47.999920 
	C65.972763,48.000320 76.958160,48.141563 87.936592,47.926620 
	C91.908737,47.848846 93.271965,49.225540 93.060936,53.126617 
	C92.800652,57.938290 92.878448,62.778618 93.038429,67.598984 
	C93.144066,70.781906 92.001099,72.226585 88.711296,72.029861 
	C85.948624,71.864662 83.168213,71.995911 80.245300,71.995911 
	C80.245300,74.573196 80.245300,76.495003 80.245300,78.964844 
	C84.080162,78.964844 87.719955,79.225807 91.304985,78.894394 
	C95.202957,78.534042 99.550323,74.575096 99.125092,69.763397 
	C98.599792,63.819298 98.999672,57.793438 98.999168,50.880489 
M315.432526,76.039154 
	C317.603546,74.478943 316.666077,73.278679 315.261322,71.662437 
	C312.912659,68.960182 310.904694,70.352104 308.794067,71.738716 
	C302.938019,75.585938 298.405029,74.366966 293.004608,69.327316 
	C289.006500,65.596283 289.062622,58.512791 292.407074,54.367718 
	C296.018433,49.891846 302.875580,48.166489 307.827271,51.572468 
	C312.613800,54.864792 314.864868,53.207539 316.853699,48.890156 
	C306.591827,38.959972 291.558228,40.670620 284.515747,53.061855 
	C278.580200,63.505344 283.539124,76.268394 295.372498,79.983963 
	C302.533325,82.232384 308.865540,80.409790 315.432526,76.039154 
M44.598011,108.999992 
	C49.761135,108.998611 54.930157,109.148163 60.085457,108.946632 
	C63.992218,108.793907 67.758072,107.137260 67.857140,102.884903 
	C68.193626,88.442467 67.985687,73.987350 67.985687,59.367928 
	C65.777626,59.367928 64.080482,59.367928 61.998363,59.367928 
	C61.998363,72.512955 61.902275,85.313652 62.061771,98.111153 
	C62.104965,101.576736 60.683270,102.972038 57.463409,102.983704 
	C52.466938,103.001793 47.466438,103.109528 42.475124,102.948021 
	C38.866943,102.831276 36.529121,101.278046 36.960186,97.073776 
	C37.190170,94.830681 37.000980,92.544609 37.000980,89.976952 
	C34.661465,90.090149 33.066910,90.167297 31.015800,90.266541 
	C31.015800,94.363876 30.764090,98.182304 31.083599,101.952316 
	C31.432613,106.070503 34.006241,108.489174 38.142181,108.952957 
	C39.951992,109.155907 41.802555,108.995438 44.598011,108.999992 
M31.000000,34.500725 
	C31.000000,43.262856 31.000000,52.024986 31.000000,61.033588 
	C33.326294,60.927345 34.930260,60.854092 36.999954,60.759567 
	C36.999954,58.681808 36.999889,56.888016 36.999962,55.094223 
	C37.000435,43.943130 37.091885,32.790859 36.946758,21.641661 
	C36.902454,18.238169 37.967819,16.803318 41.520748,16.946299 
	C46.838028,17.160282 52.176792,17.161867 57.493916,16.945942 
	C61.062901,16.801008 62.276566,18.263659 62.035683,21.656893 
	C61.850494,24.265606 61.998798,26.897993 61.998798,29.659523 
	C64.227249,29.659523 65.929214,29.659523 67.637108,29.659523 
	C67.789711,28.867535 67.956169,28.391289 67.961388,27.913280 
	C67.994095,24.917822 68.025932,21.921574 67.991943,18.926336 
	C67.928581,13.343584 65.735046,11.055922 60.281891,11.014215 
	C53.125641,10.959482 45.968445,10.967496 38.812054,11.012000 
	C33.847725,11.042872 31.044136,13.943159 31.007795,19.021505 
	C30.973259,23.847851 31.000130,28.674637 31.000000,34.500725 
M378.459534,79.997658 
	C380.827820,80.267258 382.129395,79.650017 382.049103,76.825180 
	C381.874725,70.690681 381.998810,64.547714 381.999817,58.408215 
	C382.000671,53.333271 382.000000,48.258331 382.000000,43.295135 
	C378.958313,43.295135 376.701599,43.295135 374.010803,43.295135 
	C374.010803,54.830017 373.929047,66.079567 374.163635,77.322502 
	C374.182739,78.237312 376.364532,79.107002 378.459534,79.997658 
z"/>
<path fill="#03989E" opacity="1.000000" stroke="none" 
	d="
M1.000000,43.468658 
	C7.079538,42.101337 13.159076,41.202675 19.699554,40.235874 
	C19.699554,43.357193 19.699554,45.284412 19.699554,47.802971 
	C15.757965,47.802971 11.704568,47.802971 7.329634,47.802971 
	C7.329634,56.085327 7.329634,63.782650 7.329634,71.895241 
	C21.436155,71.895241 35.341587,71.895241 49.618622,71.895241 
	C49.618622,74.335030 49.618622,76.369659 49.618622,79.000000 
	C37.338711,79.000000 25.076462,79.225761 12.831594,78.863640 
	C9.115780,78.753738 5.448001,77.019585 1.379110,76.014687 
	C1.000000,65.312439 1.000000,54.624878 1.000000,43.468658 
z"/>
<path fill="#03989E" opacity="1.000000" stroke="none" 
	d="
M505.000000,61.999439 
	C505.000000,55.541946 505.000000,49.583897 505.000000,43.714134 
	C513.484192,42.026623 513.468323,42.034554 517.056458,49.206093 
	C519.405273,53.900658 521.808289,58.568092 524.595886,64.051903 
	C525.819580,62.686096 527.107666,61.686275 527.816162,60.373642 
	C529.762268,56.767841 531.928650,53.177914 533.156189,49.311333 
	C535.022766,43.431973 538.544312,41.593353 544.626465,43.533138 
	C544.626465,55.270618 544.626465,67.310577 544.626465,79.674431 
	C542.689148,79.674431 540.769592,79.674431 538.137634,79.674431 
	C538.137634,73.344917 538.137634,66.842590 538.137634,60.340263 
	C537.606140,60.178562 537.074585,60.016857 536.543091,59.855152 
	C534.355652,64.127777 532.334595,68.498482 529.901245,72.626167 
	C528.886292,74.347916 527.026184,76.636765 525.491455,76.682281 
	C524.006836,76.726303 522.032410,74.470444 521.005066,72.779968 
	C518.823242,69.189964 517.176025,65.278976 515.167786,61.576515 
	C514.749878,60.806084 513.717346,60.369026 512.036194,59.043636 
	C512.036194,66.680695 512.036194,73.074753 512.036194,79.725403 
	C509.595612,79.725403 507.666992,79.725403 505.000000,79.725403 
	C505.000000,74.018715 505.000000,68.258797 505.000000,61.999439 
z"/>
<path fill="#03989E" opacity="1.000000" stroke="none" 
	d="
M425.908203,62.407837 
	C429.513428,66.650551 429.379608,70.826324 427.278961,75.368492 
	C425.304169,79.638481 421.623932,79.933647 417.787079,79.979271 
	C411.473633,80.054352 405.158630,79.999634 398.422699,79.999634 
	C398.422699,67.772469 398.422699,55.746460 398.422699,43.108173 
	C405.237274,43.108173 412.234924,42.439137 419.041840,43.292057 
	C426.173309,44.185638 429.148712,51.624722 426.000488,58.188747 
	C425.467255,59.300533 425.754883,60.806026 425.908203,62.407837 
M419.779633,66.477486 
	C415.031525,65.815620 410.283417,65.153755 405.378235,64.469994 
	C405.378235,68.333549 405.378235,71.026871 405.378235,73.980911 
	C408.879700,73.980911 412.023010,74.187721 415.127960,73.930763 
	C419.415100,73.575966 421.161896,71.016022 419.779633,66.477486 
M411.404297,50.000042 
	C409.340332,50.000042 407.276398,50.000042 405.268677,50.000042 
	C405.268677,53.022793 405.268677,55.268265 405.268677,57.969101 
	C408.773682,57.969101 412.097656,58.358452 415.250275,57.792747 
	C416.669830,57.538025 418.245209,55.553112 418.787933,54.014019 
	C419.098633,53.132923 417.755127,51.116676 416.649567,50.442364 
	C415.532257,49.760891 413.789307,50.105198 411.404297,50.000042 
z"/>
<path fill="#03989E" opacity="1.000000" stroke="none" 
	d="
M158.465897,79.425446 
	C158.169724,67.285767 158.169724,55.503471 158.169724,43.104816 
	C165.229355,43.104816 172.246002,42.373753 179.022110,43.336189 
	C184.440628,44.105793 188.299271,48.200455 188.887848,54.132271 
	C189.454987,59.847980 188.126907,64.914803 182.132431,68.277031 
	C184.606430,71.943169 187.073532,75.599113 189.782394,79.613289 
	C184.438324,80.553055 179.776642,80.686043 177.826813,75.193832 
	C175.741089,69.318871 171.509460,69.446777 166.138092,70.409599 
	C166.138092,73.314186 166.138092,76.369987 166.138092,79.782837 
	C163.294174,79.782837 161.028122,79.782837 158.465897,79.425446 
M174.092438,62.997501 
	C180.155304,61.940739 181.788071,60.198524 180.917221,54.588982 
	C180.245529,50.262291 176.492981,50.143337 173.078888,50.016281 
	C170.837662,49.932873 168.590820,50.000526 166.392929,50.000526 
	C166.392929,54.726604 166.392929,58.749710 166.392929,62.999458 
	C168.925385,62.999458 171.065781,62.999458 174.092438,62.997501 
z"/>
<path fill="#03989E" opacity="1.000000" stroke="none" 
	d="
M357.331909,47.829811 
	C362.211243,54.878704 360.837463,62.669449 353.626862,68.299065 
	C355.642303,71.682449 357.702606,75.141098 360.065887,79.108360 
	C355.760956,80.398445 351.868042,81.364342 349.967621,76.367790 
	C347.702393,70.412056 343.647095,68.776161 337.239899,70.514091 
	C337.239899,73.224915 337.239899,76.278061 337.239899,79.658966 
	C334.277924,79.658966 331.903931,79.658966 329.261780,79.658966 
	C329.261780,67.579964 329.261780,55.661350 329.261780,42.642780 
	C336.838959,43.076046 344.351532,43.290085 351.802338,44.083939 
	C353.653870,44.281212 355.305573,46.354015 357.331909,47.829811 
M337.001709,53.681408 
	C337.001709,56.632053 337.001709,59.582703 337.001709,62.969051 
	C340.497162,62.969051 343.477325,63.222801 346.396576,62.909374 
	C350.737091,62.443352 354.265808,57.985062 352.657227,54.705235 
	C351.730835,52.816261 349.378906,50.705772 347.432434,50.442703 
	C344.094604,49.991592 340.570251,50.897892 337.133972,51.314705 
	C337.035675,51.326626 337.047607,52.247189 337.001709,53.681408 
z"/>
<path fill="#03989E" opacity="1.000000" stroke="none" 
	d="
M442.000000,52.055756 
	C442.000000,48.931240 442.000000,46.298779 442.000000,43.335232 
	C451.420563,43.335232 460.456268,43.335232 469.744934,43.335232 
	C469.744934,45.441559 469.744934,47.371399 469.744934,49.885914 
	C463.346252,49.885914 456.949402,49.885914 450.285767,49.885914 
	C450.285767,52.723652 450.285767,54.985371 450.285767,57.837673 
	C455.939453,57.837673 461.671265,57.837673 467.689697,57.837673 
	C467.689697,60.341022 467.689697,62.265369 467.689697,64.786118 
	C462.107330,64.786118 456.385071,64.786118 450.338806,64.786118 
	C450.338806,68.073975 450.338806,70.775070 450.338806,73.909920 
	C456.768280,73.909920 463.029755,73.909920 469.634338,73.909920 
	C469.634338,76.033836 469.634338,77.737869 469.634338,79.723427 
	C460.645264,79.723427 451.721436,79.723427 442.000000,79.723427 
	C442.000000,70.688965 442.000000,61.618389 442.000000,52.055756 
z"/>
<path fill="#03989E" opacity="1.000000" stroke="none" 
	d="
M585.660645,43.020584 
	C586.976501,45.000435 587.823914,46.966782 589.082397,49.886879 
	C581.674316,49.886879 575.610657,49.886879 569.283508,49.886879 
	C569.283508,52.728016 569.283508,54.990013 569.283508,57.843704 
	C574.951355,57.843704 580.681030,57.843704 586.694092,57.843704 
	C586.694092,60.350136 586.694092,62.276234 586.694092,64.797867 
	C581.100952,64.797867 575.375305,64.797867 569.332642,64.797867 
	C569.332642,68.086845 569.332642,70.788773 569.332642,73.922958 
	C575.783936,73.922958 582.046936,73.922958 588.643311,73.922958 
	C588.643311,76.048492 588.643311,77.752686 588.643311,79.730682 
	C579.625061,79.730682 570.700684,79.730682 561.386963,79.730682 
	C561.386963,67.694160 561.386963,55.665730 561.386963,43.007076 
	C569.336975,43.007076 577.264648,43.007076 585.660645,43.020584 
z"/>
<path fill="#03989E" opacity="1.000000" stroke="none" 
	d="
M138.990265,68.437271 
	C133.669861,69.316429 128.642654,69.919411 123.183624,70.574196 
	C123.183624,73.344307 123.183624,76.267281 123.183624,79.594498 
	C120.405518,79.594498 118.032005,79.594498 115.323776,79.594498 
	C115.323776,67.621094 115.323776,55.598789 115.323776,43.024940 
	C122.066025,43.024940 128.682343,42.669361 135.242157,43.125732 
	C141.699966,43.575005 146.415024,50.367340 145.575165,56.876289 
	C144.977570,61.507526 144.405380,66.083313 138.990265,68.437271 
M128.352005,62.999802 
	C131.473450,61.847389 135.084229,61.276779 137.480072,59.261669 
	C138.464737,58.433483 137.556854,52.851692 136.253647,52.276051 
	C132.335785,50.545475 127.799698,50.214508 123.290428,49.293777 
	C123.290428,54.717976 123.290428,58.640579 123.290428,62.799629 
	C124.853889,62.874809 126.151001,62.937187 128.352005,62.999802 
z"/>
<path fill="#03989E" opacity="1.000000" stroke="none" 
	d="
M246.162018,47.352829 
	C251.230225,42.397327 264.174500,41.264126 269.418060,45.215027 
	C273.289886,48.132332 269.637146,50.309246 268.497345,52.710178 
	C264.833466,51.794930 261.281067,50.567173 257.636230,50.153202 
	C256.025330,49.970234 254.227097,51.436829 252.513901,52.154568 
	C253.631836,53.570515 254.468933,55.506432 255.926437,56.293636 
	C258.915863,57.908241 262.255096,58.865391 265.418915,60.169399 
	C269.863983,62.001495 272.112335,65.453499 271.929901,70.176552 
	C271.749298,74.852180 267.914551,78.650078 263.326660,80.043365 
	C257.447845,81.828667 251.969269,80.867798 246.710892,78.239212 
	C242.241653,76.005096 241.809189,72.172020 245.331726,68.376053 
	C249.733688,71.335098 253.980972,75.035484 259.870972,72.987656 
	C261.103699,72.559052 262.942017,70.784271 262.765625,70.042747 
	C262.413696,68.563431 261.117645,66.843918 259.746155,66.168251 
	C256.849731,64.741302 253.550644,64.149071 250.601593,62.807983 
	C243.686493,59.663319 242.147156,54.417984 246.162018,47.352829 
z"/>
<path fill="#03989E" opacity="1.000000" stroke="none" 
	d="
M211.005920,53.077965 
	C211.065125,54.837700 211.127914,56.133923 211.210800,57.845295 
	C217.015411,57.845295 222.611038,57.845295 228.598160,57.845295 
	C228.598160,60.300526 228.598160,62.336437 228.598160,64.968658 
	C222.914322,64.968658 217.187241,64.968658 211.239059,64.968658 
	C211.239059,68.144859 211.239059,70.735634 211.239059,73.917496 
	C217.727448,73.917496 224.120087,73.917496 230.743683,73.917496 
	C230.743683,76.103966 230.743683,77.707062 230.743683,80.000000 
	C226.318039,80.000000 221.882904,80.000000 217.447784,80.000000 
	C213.158539,80.000000 208.869278,80.000000 204.296112,80.000000 
	C204.296112,67.627998 204.296112,55.716560 204.296112,43.401615 
	C212.945740,43.401615 221.648514,43.401615 230.675674,43.401615 
	C230.675674,45.306900 230.675674,47.226540 230.675674,50.002300 
	C225.428864,50.002300 220.014938,49.843616 214.623505,50.121315 
	C213.379333,50.185398 212.212143,51.743736 211.005920,53.077965 
z"/>
<path fill="#737373" opacity="1.000000" stroke="none" 
	d="
M98.999481,51.341698 
	C98.999672,57.793438 98.599792,63.819298 99.125092,69.763397 
	C99.550323,74.575096 95.202957,78.534042 91.304985,78.894394 
	C87.719955,79.225807 84.080162,78.964844 80.245300,78.964844 
	C80.245300,76.495003 80.245300,74.573196 80.245300,71.995911 
	C83.168213,71.995911 85.948624,71.864662 88.711296,72.029861 
	C92.001099,72.226585 93.144066,70.781906 93.038429,67.598984 
	C92.878448,62.778618 92.800652,57.938290 93.060936,53.126617 
	C93.271965,49.225540 91.908737,47.848846 87.936592,47.926620 
	C76.958160,48.141563 65.972763,48.000320 54.990120,47.999920 
	C53.195889,47.999851 51.401657,47.999905 49.310760,47.999905 
	C49.310760,45.603920 49.310760,43.680771 49.310760,41.000000 
	C52.523766,41.000000 55.785908,40.999966 59.048046,41.000004 
	C68.865868,41.000130 78.684570,41.080349 88.501190,40.972298 
	C95.051163,40.900204 98.569649,42.981575 98.999481,51.341698 
z"/>
<path fill="#03989E" opacity="1.000000" stroke="none" 
	d="
M315.165710,76.300056 
	C308.865540,80.409790 302.533325,82.232384 295.372498,79.983963 
	C283.539124,76.268394 278.580200,63.505344 284.515747,53.061855 
	C291.558228,40.670620 306.591827,38.959972 316.854126,48.891727 
	C314.864868,53.207539 312.613800,54.864792 307.827271,51.572468 
	C302.875580,48.166489 296.018433,49.891846 292.407074,54.367718 
	C289.062622,58.512791 289.006500,65.596283 293.004608,69.327316 
	C298.405029,74.366966 302.938019,75.585938 308.794067,71.738716 
	C310.904694,70.352104 312.912659,68.960182 315.261322,71.662437 
	C316.666077,73.278679 317.603546,74.478943 315.165710,76.300056 
z"/>
<path fill="#737373" opacity="1.000000" stroke="none" 
	d="
M44.116310,109.000000 
	C41.802555,108.995438 39.951992,109.155907 38.142181,108.952957 
	C34.006241,108.489174 31.432613,106.070503 31.083599,101.952316 
	C30.764090,98.182304 31.015800,94.363876 31.015800,90.266541 
	C33.066910,90.167297 34.661465,90.090149 37.000980,89.976952 
	C37.000980,92.544609 37.190170,94.830681 36.960186,97.073776 
	C36.529121,101.278046 38.866943,102.831276 42.475124,102.948021 
	C47.466438,103.109528 52.466938,103.001793 57.463409,102.983704 
	C60.683270,102.972038 62.104965,101.576736 62.061771,98.111153 
	C61.902275,85.313652 61.998363,72.512955 61.998363,59.367928 
	C64.080482,59.367928 65.777626,59.367928 67.985687,59.367928 
	C67.985687,73.987350 68.193626,88.442467 67.857140,102.884903 
	C67.758072,107.137260 63.992218,108.793907 60.085457,108.946632 
	C54.930157,109.148163 49.761135,108.998611 44.116310,109.000000 
z"/>
<path fill="#03989E" opacity="1.000000" stroke="none" 
	d="
M31.000000,34.000977 
	C31.000130,28.674637 30.973259,23.847851 31.007795,19.021505 
	C31.044136,13.943159 33.847725,11.042872 38.812054,11.012000 
	C45.968445,10.967496 53.125641,10.959482 60.281891,11.014215 
	C65.735046,11.055922 67.928581,13.343584 67.991943,18.926336 
	C68.025932,21.921574 67.994095,24.917822 67.961388,27.913280 
	C67.956169,28.391289 67.789711,28.867535 67.637108,29.659523 
	C65.929214,29.659523 64.227249,29.659523 61.998798,29.659523 
	C61.998798,26.897993 61.850494,24.265606 62.035683,21.656893 
	C62.276566,18.263659 61.062901,16.801008 57.493916,16.945942 
	C52.176792,17.161867 46.838028,17.160282 41.520748,16.946299 
	C37.967819,16.803318 36.902454,18.238169 36.946758,21.641661 
	C37.091885,32.790859 37.000435,43.943130 36.999962,55.094223 
	C36.999889,56.888016 36.999954,58.681808 36.999954,60.759567 
	C34.930260,60.854092 33.326294,60.927345 31.000000,61.033588 
	C31.000000,52.024986 31.000000,43.262856 31.000000,34.000977 
z"/>
<path fill="#03989E" opacity="1.000000" stroke="none" 
	d="
M378.000458,79.997650 
	C376.364532,79.107002 374.182739,78.237312 374.163635,77.322502 
	C373.929047,66.079567 374.010803,54.830017 374.010803,43.295135 
	C376.701599,43.295135 378.958313,43.295135 382.000000,43.295135 
	C382.000000,48.258331 382.000671,53.333271 381.999817,58.408215 
	C381.998810,64.547714 381.874725,70.690681 382.049103,76.825180 
	C382.129395,79.650017 380.827820,80.267258 378.000458,79.997650 
z"/>
<path fill="#000000" opacity="1.000000" stroke="none" 
	d="
M419.913086,66.862701 
	C421.161896,71.016022 419.415100,73.575966 415.127960,73.930763 
	C412.023010,74.187721 408.879700,73.980911 405.378235,73.980911 
	C405.378235,71.026871 405.378235,68.333549 405.378235,64.469994 
	C410.283417,65.153755 415.031525,65.815620 419.913086,66.862701 
z"/>
<path fill="#000000" opacity="1.000000" stroke="none" 
	d="
M411.862366,50.000092 
	C413.789307,50.105198 415.532257,49.760891 416.649567,50.442364 
	C417.755127,51.116676 419.098633,53.132923 418.787933,54.014019 
	C418.245209,55.553112 416.669830,57.538025 415.250275,57.792747 
	C412.097656,58.358452 408.773682,57.969101 405.268677,57.969101 
	C405.268677,55.268265 405.268677,53.022793 405.268677,50.000042 
	C407.276398,50.000042 409.340332,50.000042 411.862366,50.000092 
z"/>
<path fill="#000000" opacity="1.000000" stroke="none" 
	d="
M173.649307,62.998482 
	C171.065781,62.999458 168.925385,62.999458 166.392929,62.999458 
	C166.392929,58.749710 166.392929,54.726604 166.392929,50.000526 
	C168.590820,50.000526 170.837662,49.932873 173.078888,50.016281 
	C176.492981,50.143337 180.245529,50.262291 180.917221,54.588982 
	C181.788071,60.198524 180.155304,61.940739 173.649307,62.998482 
z"/>
<path fill="#000000" opacity="1.000000" stroke="none" 
	d="
M337.004944,53.212738 
	C337.047607,52.247189 337.035675,51.326626 337.133972,51.314705 
	C340.570251,50.897892 344.094604,49.991592 347.432434,50.442703 
	C349.378906,50.705772 351.730835,52.816261 352.657227,54.705235 
	C354.265808,57.985062 350.737091,62.443352 346.396576,62.909374 
	C343.477325,63.222801 340.497162,62.969051 337.001709,62.969051 
	C337.001709,59.582703 337.001709,56.632053 337.004944,53.212738 
z"/>
<path fill="#000000" opacity="1.000000" stroke="none" 
	d="
M127.900063,62.999680 
	C126.151001,62.937187 124.853889,62.874809 123.290428,62.799629 
	C123.290428,58.640579 123.290428,54.717976 123.290428,49.293777 
	C127.799698,50.214508 132.335785,50.545475 136.253647,52.276051 
	C137.556854,52.851692 138.464737,58.433483 137.480072,59.261669 
	C135.084229,61.276779 131.473450,61.847389 127.900063,62.999680 
z"/>
</svg>